<svg viewBox="2890 1040 2240 2240" xmlns="http://www.w3.org/2000/svg" xml:space="preserve" style="fill-rule:evenodd;clip-rule:evenodd;stroke-linecap:round;stroke-linejoin:round;stroke-miterlimit:1.5">
  <path class="jp-icon2" fill="#424242" stroke="#424242" stroke-width="80px" d="m4541.56 1114.52 3.104 247.572M4324.31 1114.52l3.103 247.572M4107.07 1114.52l3.103 247.572M3889.83 1114.52l3.103 247.572M3672.58 1114.52l3.103 247.572M3455.34 1114.52l3.104 247.572M2943.46 1629.3l247.572-3.155M2943.51 1846.55l247.572-3.155M2943.55 2063.79l247.572-3.155M2943.6 2281.03l247.572-3.156M2943.65 2498.28l247.572-3.156M2943.69 2715.52l247.572-3.155M4808.74 1629.3l247.572-3.155M4808.78 1846.55l247.572-3.155M4808.83 2063.79l247.572-3.155M4808.87 2281.03l247.572-3.156M4808.92 2498.28l247.572-3.156M4808.96 2715.52l247.572-3.155M3423.98 2979.57l-3.301 247.573m234.371-247.573-3.301 247.573m234.371-247.573-3.301 247.573m234.361-247.573-3.301 247.573m234.371-247.573-3.301 247.573m234.371-247.573-3.301 247.573M4789.56 1414.52l3.104 1509.572M3200.56 1414.52l3.104 1509.572M3200.46 1400.3l1570.572-3.155M3200.46 2959.3l1570.572-3.155"/>
  <g/>
  <path class="jp-icon2" fill="#027dc3" d="M4266.67 1570.83c-176.482 86.378-352.549 179.077-526.719 300.657-113.197 81.048-200.721 186.171-244.115 332.677-32.327 91.584-17.565 197.844 37.5 316.666-9.136-71.977-5.958-156.774 33.334-279.166 45.169-112.04 111.484-186.074 168.137-253.666 81.954-113.97 491.542-362.401 494.823-340.085 60.512 126.953 112.719 373.36 110.705 479.437 5.449 170.971-18.705 238.97-63.364 314.699-86.953 120.881-150.82 178.927-198.407 193.664-92.248 28.567-156.394 20.922-206.741-4.505-62.605-32.705-109.749-69.438-123.124-125.126-12.959-53.957.748-118.964 37.545-182.377 37.165-64.045 105.214-79.48 151.969-73.708-44.297-26.501-104.58-26.209-176.579 8.302-69.963 33.535-110.87 100.673-121.815 207.795-3.277 70.494 15.317 135.948 76.408 191.607 54.92 53.734 131.226 95.415 245.109 108.505 82.59 9.493 174.835-3.147 299.264-98.077 85.817-75.86 165.662-221.687 157.819-418.132-7.287-214.897-56.298-441.596-151.749-679.167Z"/>
</svg>
